<svg xmlns="http://www.w3.org/2000/svg" data-name="Layer 1" viewBox="0 0 64 64"><circle cx="32" cy="32" r="27" fill="#2a292a"/><path fill="#ef4136" d="M47.32,36.66a3.84,3.84,0,0,0,.14-4.9,3.87,3.87,0,0,0-.81-5.53,3.85,3.85,0,0,0-1.4-5.31A3.84,3.84,0,0,0,42,15.88a4.42,4.42,0,0,0-6.41-3.49,4.57,4.57,0,0,0-7.27,0A4.42,4.42,0,0,0,22,15.88a3.84,3.84,0,0,0-3.2,5.06,3.85,3.85,0,0,0-1.4,5.31,3.87,3.87,0,0,0-.81,5.53,3.84,3.84,0,0,0,.14,4.9,3,3,0,1,0,3.81,4.73,3.88,3.88,0,0,0,4.83.48,3.91,3.91,0,1,0,.61-6.1,3.9,3.9,0,0,0-1.74-1,3.88,3.88,0,0,0,1.44-5.76,3.87,3.87,0,0,0-.52-6.46,3.89,3.89,0,0,0,1.08-1.76l.18,0a4.44,4.44,0,0,0,3.41-1.61,4.45,4.45,0,0,0,4.42,0,4.44,4.44,0,0,0,3.41,1.61l.18,0a3.89,3.89,0,0,0,1.08,1.76,3.87,3.87,0,0,0-.52,6.46,3.88,3.88,0,0,0,1.44,5.76,3.9,3.9,0,0,0-1.74,1,3.91,3.91,0,1,0,.61,6.1,3.88,3.88,0,0,0,4.83-.48,3,3,0,1,0,3.81-4.73Z"/><path fill="#ffd2b4" d="M36,39.94v5.47a.94.94,0,0,1-.52.84l-3.06,1.53a.94.94,0,0,1-.84,0l-3.06-1.53a.94.94,0,0,1-.52-.84V39.94a.94.94,0,0,1,.94-.94h6.11A.94.94,0,0,1,36,39.94Z"/><path fill="#ffd2b4" d="M32,15.21C43,15.21,42.1,26,42.1,26c1.62-.17,2.9.49,2.9,2.86s-1,2.86-2.26,3a.28.28,0,0,0-.26.27c-.38,3.69-2.9,6.39-5.38,8.2a8.59,8.59,0,0,1-10.19,0c-2.48-1.81-5-4.52-5.38-8.2a.28.28,0,0,0-.26-.27c-1.27-.13-2.26-.63-2.26-3s1.22-3,2.84-2.86C21.84,26,20.94,15.21,32,15.21Z"/><circle cx="28.04" cy="28.15" r="1.7" fill="#262234"/><circle cx="35.96" cy="28.15" r="1.7" fill="#262234"/><path fill="#611c24" d="M35.87,32.53a1,1,0,0,1,1,1.25,5,5,0,0,1-9.68,0,1,1,0,0,1,1-1.25Z"/><path fill="#be1e2d" d="M34.42,36.91a5,5,0,0,1-4.84,0c.2-1.23,1.21-1.57,2.42-1.57S34.22,35.68,34.42,36.91Z"/><path fill="#fff" d="M34.87,32.53v.95a.37.37,0,0,1-.36.37h-5a.37.37,0,0,1-.36-.37v-.95Z"/><path fill="#ef4136" d="M43.5,22.2C43,15.34,36.87,13,32,13S21,15.34,20.5,22.2a11.32,11.32,0,0,0,.1,3.42A31.62,31.62,0,0,0,21,29.26c.18.78,1.07.75,1.19.05a23.59,23.59,0,0,1,2-7.34,3.28,3.28,0,0,0,3.36.7A3.34,3.34,0,0,0,32,23a3.34,3.34,0,0,0,4.54-.37A3.28,3.28,0,0,0,39.89,22a23.6,23.6,0,0,1,2,7.33c.11.7,1,.73,1.19-.05a30.77,30.77,0,0,0,.34-3.57A11.23,11.23,0,0,0,43.5,22.2Z"/><path fill="#2a292a" d="M48.75,53.16a26.94,26.94,0,0,1-33.5,0L16,50.5A9.12,9.12,0,0,1,24.79,44H39.21A9.12,9.12,0,0,1,48,50.5Z"/><path fill="#009444" d="M48.75,53.16a26.94,26.94,0,0,1-33.5,0L16,50.5A9.12,9.12,0,0,1,24.79,44H39.21A9.12,9.12,0,0,1,48,50.5Z"/><path fill="#ffd2b4" d="M36,39v5.76a2,2,0,0,1-1.11,1.8h0a6.46,6.46,0,0,1-5.78,0h0A2,2,0,0,1,28,44.76V39Z"/><path fill="#d1d3d4" d="M36.69,47.24V58.59a20.4,20.4,0,0,1-2.35.3c-.39,0-.79.07-1.19.08h0q-.57,0-1.14,0c-.38,0-.77,0-1.15,0s-.8,0-1.19-.08a20.4,20.4,0,0,1-2.35-.3V47.24Z"/><path fill="#262234" d="M36,41v2a8.5,8.5,0,0,1-8,0V41a8.5,8.5,0,0,0,8,0Z" opacity=".1"/><path fill="#ef4136" d="M33.12,50.67H30.88a1,1,0,0,1-1-.72l-.79-2.71h5.73l-.79,2.71A1,1,0,0,1,33.12,50.67Z"/><path fill="#ef4136" d="M34.34,58.89c-.39,0-.79.07-1.19.08h0q-.57,0-1.14,0c-.38,0-.77,0-1.15,0s-.8,0-1.19-.08l1.67-9.08h1.34Z"/><polygon fill="#f1f2f2" points="32 47.24 28.34 51.28 26.18 44 28 42.12 32 47.24"/><polygon fill="#f1f2f2" points="32 47.24 35.66 51.28 37.82 44 36 42.12 32 47.24"/><path fill="#006838" d="M30.85 59a24.53 24.53 0 0 1-3.56-.38l-3.68-8.12 1.72-.87L23.14 48l-.2-3.8a8.74 8.74 0 0 1 1.85-.2h1.39zM40.86 48l-2.19 1.6 1.72.87-3.68 8.12a24.68 24.68 0 0 1-3.56.38l4.67-15h1.39a8.74 8.74 0 0 1 1.85.2z"/></svg>