<svg xmlns="http://www.w3.org/2000/svg" width="64" height="64" fill="none" viewBox="0 0 64 64"><rect width="64" height="64" fill="#fff"/><path fill="#4FC3F7" fill-rule="evenodd" d="M32 64C49.6731 64 64 49.6731 64 32C64 14.3269 49.6731 0 32 0C14.3269 0 0 14.3269 0 32C0 49.6731 14.3269 64 32 64Z" clip-rule="evenodd"/><path fill="#FFCC80" fill-rule="evenodd" d="M53.9068 55.3258C48.1816 60.7049 40.4756 64 32 64C23.6259 64 16.0032 60.7834 10.2998 55.5184C10.3509 55.3648 10.4036 55.2106 10.4577 55.0562C11.5001 52.0848 11.7463 49.8993 17.1911 47.7673C22.6358 45.6354 39.7132 45.5849 45.9745 47.5284C52.2358 49.4718 52.8842 52.5158 53.7652 54.9177C53.8138 55.0503 53.861 55.1866 53.9068 55.3258V55.3258Z" clip-rule="evenodd"/><path fill="#3E2723" fill-rule="evenodd" d="M22.6548 32.0466C22.6548 32.0466 13.84 37.1273 18.2624 45.6689C22.6847 54.2105 23.9951 55.5358 21.1844 60.4339C27.9175 57.9798 27.7857 50.453 27.7857 50.453L27.7732 39.1812L22.6548 32.0466Z" clip-rule="evenodd"/><path fill="#FFCC80" fill-rule="evenodd" d="M20.6246 23.2086C21.9552 17.163 26.5439 12.7059 32.0001 12.7059C37.4733 12.7059 42.0736 17.1909 43.3879 23.2653C43.5488 23.1924 43.7332 23.1625 43.945 23.1819C45.221 23.2987 45.2045 24.984 45.0233 27.0553C44.8445 29.0994 44.0858 30.7079 43.3194 30.6844C42.3081 34.9622 39.6582 38.4132 36.2353 39.9987V47.0603C36.2353 49.3985 34.3397 51.2941 32.0001 51.2941C29.661 51.2941 27.7648 49.4017 27.7648 47.0603V39.9987C24.3354 38.4102 21.682 34.9492 20.675 30.6602C19.9733 30.4519 19.3165 28.9384 19.1517 27.0553C18.9705 24.984 18.9541 23.2987 20.23 23.1819C20.3738 23.1687 20.5049 23.1783 20.6246 23.2086V23.2086Z" clip-rule="evenodd"/><path fill="#EC407A" fill-rule="evenodd" d="M28.2354 34.4835C28.2354 34.4835 29.9713 32.9501 32.0842 33.5894C33.5686 33.2467 34.7278 33.3312 35.7648 34.4578C35.1695 35.2864 34.5933 36.1885 32.0508 36.2344C29.5083 36.2803 28.2354 34.4835 28.2354 34.4835Z" clip-rule="evenodd"/><path fill="#3E2723" fill-rule="evenodd" d="M19.7436 23.3107C19.7436 23.3107 18.4051 8.78012 31.8401 9.07355C45.2751 9.36698 44.141 23.2558 44.141 23.2558C44.141 23.2558 42.479 22.744 42.275 25.9159C41.7859 25.5969 41.0399 24.8508 41.064 24.2674C40.59 24.3262 30.4088 24.8867 30.0591 18.6039C29.6595 20.3398 30.5288 22.3119 23.0131 24.2444C22.8109 25.1478 22.2567 25.5997 21.8432 25.8285C21.755 22.6733 19.7436 23.3107 19.7436 23.3107Z" clip-rule="evenodd"/></svg>